<svg width="28" height="28" viewBox="0 0 28 28" fill="none" xmlns="http://www.w3.org/2000/svg">
<path fill-rule="evenodd" clip-rule="evenodd" d="M1.18818 8.23631C0.459998 9.75522 0.715617 11.5317 1.22685 15.0847L1.60244 17.695C2.25916 22.259 2.58751 24.541 4.17072 25.9042C5.75392 27.2675 8.07575 27.2675 12.7194 27.2675H15.6999C20.3436 27.2675 22.6654 27.2675 24.2486 25.9042C25.8318 24.541 26.1602 22.259 26.8169 17.695L27.1925 15.0847C27.7037 11.5317 27.9593 9.75522 27.2311 8.23631C26.503 6.7174 24.953 5.79412 21.8532 3.94756L19.9874 2.8361C17.1724 1.15923 15.7649 0.320801 14.2097 0.320801C12.6544 0.320801 11.2469 1.15923 8.43196 2.8361L6.56612 3.94757C3.46628 5.79412 1.91636 6.7174 1.18818 8.23631ZM14.2097 22.8886C13.6516 22.8886 13.1992 22.4362 13.1992 21.8781V17.8361C13.1992 17.278 13.6516 16.8256 14.2097 16.8256C14.7677 16.8256 15.2202 17.278 15.2202 17.8361V21.8781C15.2202 22.4362 14.7677 22.8886 14.2097 22.8886Z" fill="#F4E9DC" fill-opacity="0.6"/>
</svg>
