<svg width="86" height="91" viewBox="0 0 86 91" fill="none" xmlns="http://www.w3.org/2000/svg">
<path d="M7.54204 83.9769V17.9316L23.8347 34.7709L10.9318 47.5645L22.4132 59.0458L27.4431 54.0159L21.3197 47.5645L43.2983 25.4765C46.535 21.2776 44.2096 17.4577 42.6423 16.0727L29.0833 29.741L0.21582 0.873507V90.1003C5.90184 89.7504 7.46914 85.8722 7.54204 83.9769Z" fill="#F3E3D1"/>
<path d="M42.6423 79.2749L74.4621 47.6738C70.4381 43.8248 66.3705 45.7056 64.8396 47.1271L42.6423 69.1057L35.2067 61.4515L77.9612 18.1503V83.5395C78.7485 89.313 83.0276 90.319 85.0687 90.1003V0.76416L24.7094 61.5608L42.6423 79.2749Z" fill="#F3E3D1"/>
</svg>
