<svg width="28" height="28" viewBox="0 0 28 28" fill="none" xmlns="http://www.w3.org/2000/svg">
<path fill-rule="evenodd" clip-rule="evenodd" d="M14.8132 1.1025C14.5789 0.925715 14.2935 0.830078 14 0.830078C13.7065 0.830078 13.4211 0.925715 13.1868 1.1025C11.9391 2.037 9.0965 4.32834 6.59517 7.51859C5.99958 8.2775 6.57067 9.33334 7.50283 9.33334H10.3332C10.2649 10.8331 10.2083 13.1308 10.2083 16.625V26.8333C10.2083 26.9107 10.2391 26.9849 10.2938 27.0396C10.3485 27.0943 10.4226 27.125 10.5 27.125H17.5C17.5774 27.125 17.6515 27.0943 17.7062 27.0396C17.7609 26.9849 17.7917 26.9107 17.7917 26.8333V16.625C17.7917 13.1308 17.7351 10.8331 17.6668 9.33334H20.4972C21.4293 9.33334 22.0004 8.27809 21.4048 7.51859C18.9035 4.32775 16.0609 2.037 14.8132 1.10309V1.1025ZM4.66667 27.125H8.16667C8.24402 27.125 8.31821 27.0943 8.37291 27.0396C8.4276 26.9849 8.45833 26.9107 8.45833 26.8333V17.0619C8.45818 16.6366 8.2891 16.2287 7.98828 15.928C7.68745 15.6273 7.27952 15.4583 6.85417 15.4583H4.66667C3.77883 15.4583 3.11792 15.4764 2.63492 15.4998C1.78617 15.5406 1.12058 16.1064 1.03192 16.9768C0.95025 17.7783 0.875 19.1083 0.875 21.2917C0.875 23.4751 0.95025 24.8051 1.03192 25.6066C1.12058 26.4775 1.78617 27.0428 2.63492 27.0836C3.11792 27.1069 3.77883 27.125 4.66667 27.125ZM19.8333 27.125H23.3333C24.2212 27.125 24.8821 27.1069 25.3651 27.0836C26.2138 27.0428 26.8794 26.4769 26.9681 25.6066C27.0497 24.8051 27.125 23.4751 27.125 21.2917C27.125 19.1083 27.0497 17.7783 26.9681 16.9768C26.8794 16.1058 26.2138 15.5406 25.3651 15.4998C24.6883 15.4698 24.0108 15.456 23.3333 15.4583H21.1458C20.7205 15.4583 20.3125 15.6273 20.0117 15.928C19.7109 16.2287 19.5418 16.6366 19.5417 17.0619V26.8333C19.5417 26.9107 19.5724 26.9849 19.6271 27.0396C19.6818 27.0943 19.756 27.125 19.8333 27.125Z" fill="#F4E9DC" fill-opacity="0.6"/>
</svg>
