<svg width="32" height="30" viewBox="0 0 32 30" fill="none" xmlns="http://www.w3.org/2000/svg">
<g clip-path="url(#clip0_3041_2201)">
<g clip-path="url(#clip1_3041_2201)">
<path d="M27.5567 6.65593V23.7913C27.5567 25.1433 26.4607 26.2393 25.1086 26.2393H20.5187C20.1807 26.2393 19.9068 25.9653 19.9068 25.6272V18.2835H22.7709C23.0617 18.2836 23.3125 18.0789 23.3706 17.7939L23.8113 15.5908C23.8295 15.5018 23.8072 15.4093 23.7505 15.3383C23.6936 15.2675 23.6083 15.2254 23.5175 15.2236H19.9068V11.2458C19.9068 11.0768 20.0438 10.9398 20.2127 10.9398H23.2727C23.6108 10.9398 23.8847 10.6658 23.8847 10.3278V8.49187C23.8847 8.15388 23.6108 7.87988 23.2727 7.87988H20.2127C18.1848 7.87988 16.5408 9.52384 16.5408 11.5518V15.2236H15.0353C14.6973 15.2236 14.4233 15.4976 14.4233 15.8357V17.6716C14.4233 18.0096 14.6973 18.2835 15.0353 18.2835H16.5408V25.6272C16.5408 25.9653 16.2668 26.2393 15.9287 26.2393H7.97286C6.62087 26.2393 5.52487 25.1433 5.52487 23.7913V6.65593C5.52487 5.30397 6.62087 4.20801 7.97286 4.20801H25.1086C26.4607 4.20801 27.5567 5.30397 27.5567 6.65593Z" fill="white"/>
</g>
</g>
<defs>
<clipPath id="clip0_3041_2201">
<rect width="30.8906" height="29.4062" fill="white" transform="translate(0.632812 0.536133)"/>
</clipPath>
<clipPath id="clip1_3041_2201">
<rect width="30.875" height="29.375" fill="white" transform="translate(0.632812 0.536133)"/>
</clipPath>
</defs>
</svg>
