<svg width="32" height="30" viewBox="0 0 32 30" fill="none" xmlns="http://www.w3.org/2000/svg">
<g clip-path="url(#clip0_3041_2194)">
<path fill-rule="evenodd" clip-rule="evenodd" d="M11.7983 4.20801H21.5902C24.9701 4.20801 27.7102 6.94793 27.7102 10.3278V20.1194C27.7102 23.4993 24.9701 26.2393 21.5902 26.2393H11.7983C8.41834 26.2393 5.67834 23.4993 5.67834 20.1194V10.3278C5.67834 6.94793 8.41834 4.20801 11.7983 4.20801ZM22.5137 10.6319C23.1897 10.6319 23.7377 10.0839 23.7377 9.40791C23.7377 8.73195 23.1897 8.18396 22.5137 8.18396C21.8377 8.18396 21.2897 8.73195 21.2897 9.40791C21.2897 10.0839 21.8377 10.6319 22.5137 10.6319ZM16.6956 9.71584C13.6536 9.71584 11.1876 12.1818 11.1876 15.2236C11.1876 18.2656 13.6536 20.7314 16.6956 20.7314C19.7374 20.7314 22.2035 18.2656 22.2035 15.2236C22.2068 13.7619 21.6275 12.3591 20.5939 11.3254C19.5602 10.2918 18.1573 9.71257 16.6956 9.71584ZM13.3294 15.2217C13.3294 17.0807 14.8364 18.5877 16.6954 18.5877C18.5543 18.5877 20.0613 17.0807 20.0613 15.2217C20.0613 13.3628 18.5543 11.8558 16.6954 11.8558C14.8364 11.8558 13.3294 13.3628 13.3294 15.2217Z" fill="white"/>
</g>
<defs>
<clipPath id="clip0_3041_2194">
<rect width="30.875" height="29.375" fill="white" transform="translate(0.632812 0.536133)"/>
</clipPath>
</defs>
</svg>
