<svg width="48" height="52" viewBox="0 0 48 52" fill="none" xmlns="http://www.w3.org/2000/svg">
<path d="M3.7137 48.1588V10.4665L13.012 20.0768L5.64824 27.3781L12.2007 33.9306L15.0713 31.06L11.5767 27.3781L24.12 14.7724C25.9672 12.376 24.64 10.196 23.7456 9.40558L16.0074 17.2061L-0.467407 0.73135V51.6534C2.77763 51.4538 3.67209 49.2405 3.7137 48.1588Z" fill="white"/>
<path d="M23.7456 45.4754L41.9053 27.4405C39.6088 25.2439 37.2873 26.3172 36.4137 27.1285L23.7456 39.6718L19.502 35.3035L43.9022 10.5913V47.9092C44.3515 51.2041 46.7936 51.7783 47.9585 51.6534V0.668945L13.5112 35.3659L23.7456 45.4754Z" fill="white"/>
</svg>
