<svg width="32" height="32" viewBox="0 0 32 32" fill="none" xmlns="http://www.w3.org/2000/svg">
<g clip-path="url(#clip0_3041_2209)">
<g clip-path="url(#clip1_3041_2209)">
<path fill-rule="evenodd" clip-rule="evenodd" d="M26.8711 24.9944C26.8711 26.2188 26.0165 27.2433 24.8716 27.5035V27.5618H24.4692C24.413 27.5655 24.3565 27.5674 24.2994 27.5674H19.4777C19.4491 27.5674 19.4209 27.5655 19.3931 27.5618H14.7405C14.7128 27.5655 14.6846 27.5674 14.6559 27.5674H6.29817C4.8779 27.5674 3.72655 26.4154 3.72655 24.9944V6.98405C3.72655 5.56306 4.8779 4.41113 6.29817 4.41113H24.2994C25.7197 4.41113 26.8711 5.56306 26.8711 6.98405V24.9944ZM20.4113 10.9644C20.5185 11.0344 20.6292 11.099 20.7429 11.1579C21.4826 11.5276 22.2053 11.6402 22.5611 11.6015V14.4803C22.5611 14.4803 21.5455 14.4381 20.7916 14.2376C19.741 13.9558 19.0675 13.5231 19.0675 13.5231C19.0675 13.5231 18.6 13.2133 18.565 13.1921V19.1411C18.565 19.4718 18.4777 20.2993 18.2158 20.989C17.9864 21.5789 17.6583 22.1252 17.2457 22.6047C17.2457 22.6047 16.6 23.4071 15.4659 23.9456C14.5205 24.3947 13.6794 24.4194 13.3454 24.4291C13.3181 24.4299 13.2942 24.4306 13.2739 24.4314C13.2739 24.4314 11.721 24.4941 10.3204 23.54L10.3134 23.5329V23.54C9.83987 23.2089 9.41761 22.8095 9.06019 22.3549C8.61696 21.7882 8.345 21.1161 8.27481 20.9191V20.912C8.1632 20.5774 7.92914 19.768 7.96422 18.9868C8.02002 17.6103 8.48081 16.7622 8.60294 16.5512C8.92386 15.9724 9.34308 15.4542 9.84174 15.0199C10.4108 14.5417 11.0726 14.1869 11.7854 13.9779C12.4981 13.7689 13.2463 13.7103 13.9828 13.8056L13.9793 16.7584C13.7367 16.6792 13.4831 16.6389 13.2279 16.639C11.88 16.639 10.7875 17.7408 10.7875 19.1015C10.7875 20.4621 11.88 21.5639 13.2279 21.5639C13.6476 21.5644 14.0602 21.4552 14.425 21.2473C14.775 21.048 15.0708 20.7655 15.2863 20.4246C15.5018 20.0839 15.6305 19.6952 15.661 19.2929V19.2866C15.6627 19.2781 15.6627 19.2696 15.6627 19.2615C15.6631 19.2551 15.6635 19.249 15.6639 19.243C15.6647 19.2307 15.6655 19.2189 15.6655 19.2066C15.6719 19.0596 15.6719 18.9108 15.6719 18.7603V7.54666H18.565C18.5604 7.54666 18.5303 7.82455 18.6033 8.25405H18.5997C18.687 8.7715 18.9243 9.51056 19.5596 10.2391C19.8134 10.5142 20.0993 10.7577 20.4113 10.9644Z" fill="white"/>
</g>
</g>
<defs>
<clipPath id="clip0_3041_2209">
<rect width="30.8906" height="30.8906" fill="white" transform="translate(0.632812 0.536133)"/>
</clipPath>
<clipPath id="clip1_3041_2209">
<rect width="30.875" height="30.875" fill="white" transform="translate(0.632812 0.551758)"/>
</clipPath>
</defs>
</svg>
