<svg width="31" height="30" viewBox="0 0 31 30" fill="none" xmlns="http://www.w3.org/2000/svg">
<g clip-path="url(#clip0_3041_2198)">
<path d="M27.5898 8.44818C26.9583 9.29069 26.1948 10.0256 25.3289 10.6246C25.3289 10.8447 25.3289 11.0648 25.3289 11.2971C25.3358 15.2938 23.7393 19.1262 20.8973 21.9351C18.0552 24.7437 14.2054 26.2942 10.2109 26.2385C7.90152 26.2461 5.62176 25.7189 3.55015 24.6979C3.43845 24.649 3.3664 24.5386 3.36681 24.4167V24.2821C3.36681 24.1066 3.50908 23.9643 3.68459 23.9643C5.95461 23.8894 8.14365 23.1024 9.94199 21.7144C7.8873 21.673 6.03861 20.4559 5.18783 18.5844C5.14486 18.4822 5.15824 18.3648 5.22313 18.2749C5.28803 18.185 5.39508 18.1355 5.50559 18.1442C6.13004 18.2069 6.76076 18.1489 7.36325 17.973C5.09505 17.5022 3.39074 15.6191 3.14683 13.3145C3.13817 13.204 3.18771 13.0969 3.27757 13.0319C3.36743 12.967 3.48463 12.9536 3.58681 12.9966C4.19549 13.2652 4.85257 13.4067 5.51781 13.4123C3.53032 12.1079 2.67186 9.62678 3.42793 7.37221C3.50597 7.15313 3.69347 6.99129 3.92153 6.94615C4.14957 6.90103 4.38455 6.97926 4.54008 7.15212C7.22207 10.0065 10.9072 11.7074 14.8184 11.8962C14.7182 11.4964 14.6689 11.0856 14.6717 10.6735C14.7083 8.51253 16.0455 6.5875 18.0571 5.79963C20.0688 5.01176 22.3567 5.51698 23.85 7.07877C24.868 6.88485 25.8521 6.54295 26.771 6.06392C26.8383 6.0219 26.9237 6.0219 26.991 6.06392C27.033 6.13126 27.033 6.21667 26.991 6.28401C26.5458 7.30325 25.794 8.15812 24.84 8.72941C25.6754 8.63253 26.496 8.43548 27.2843 8.14251C27.3507 8.09733 27.438 8.09733 27.5044 8.14251C27.5599 8.16795 27.6014 8.21659 27.6179 8.27549C27.6345 8.33439 27.6242 8.39756 27.5898 8.44818Z" fill="white"/>
</g>
<defs>
<clipPath id="clip0_3041_2198">
<rect width="30.875" height="29.375" fill="white" transform="translate(0.132812 0.536133)"/>
</clipPath>
</defs>
</svg>
