<svg width="32" height="30" viewBox="0 0 32 30" fill="none" xmlns="http://www.w3.org/2000/svg">
<g clip-path="url(#clip0_3041_2205)">
<g clip-path="url(#clip1_3041_2205)">
<path fill-rule="evenodd" clip-rule="evenodd" d="M23.2424 5.84861L25.0295 6.0322C27.1451 6.27133 28.7337 8.0771 28.7014 10.2059V20.2424C28.7337 22.3712 27.1451 24.1769 25.0295 24.4161L23.3158 24.5997C17.969 25.1504 12.5796 25.1504 7.23265 24.5997L5.44563 24.4161C3.32998 24.1769 1.74129 22.3712 1.77366 20.2424V10.2059C1.74129 8.0771 3.32998 6.27133 5.44563 6.0322L7.15921 5.84861C12.5061 5.29786 17.8955 5.29786 23.2424 5.84861ZM14.1482 19.1652L18.9095 15.983H18.9829C19.2395 15.8159 19.3943 15.5303 19.3943 15.2241C19.3943 14.9179 19.2395 14.6324 18.9829 14.4653L14.2216 11.283C13.9405 11.093 13.5775 11.0735 13.2777 11.2324C12.9779 11.3912 12.7902 11.7025 12.7896 12.0418V18.4065C12.8053 18.7222 12.9826 19.0078 13.2587 19.162C13.5349 19.3162 13.8709 19.3175 14.1482 19.1652Z" fill="white"/>
</g>
</g>
<defs>
<clipPath id="clip0_3041_2205">
<rect width="30.8906" height="29.4062" fill="white" transform="translate(0.132812 0.536133)"/>
</clipPath>
<clipPath id="clip1_3041_2205">
<rect width="30.875" height="29.375" fill="white" transform="translate(0.132812 0.536133)"/>
</clipPath>
</defs>
</svg>
