<svg width="30" height="33" viewBox="0 0 30 33" fill="none" xmlns="http://www.w3.org/2000/svg">
<path d="M15.0555 6.84481C14.1847 6.84481 13.4392 6.53474 12.8191 5.9146C12.1989 5.29446 11.8889 4.54897 11.8889 3.67814C11.8889 2.80731 12.1989 2.06182 12.8191 1.44168C13.4392 0.821544 14.1847 0.511475 15.0555 0.511475C15.9264 0.511475 16.6719 0.821544 17.292 1.44168C17.9121 2.06182 18.2222 2.80731 18.2222 3.67814C18.2222 4.54897 17.9121 5.29446 17.292 5.9146C16.6719 6.53474 15.9264 6.84481 15.0555 6.84481ZM10.3055 32.1781V11.5948C8.72221 11.4629 7.11249 11.2649 5.47638 11.0011C3.84026 10.7372 2.28332 10.4073 0.805542 10.0115L1.59721 6.84481C3.65554 7.39897 5.84582 7.8014 8.16804 8.0521C10.4903 8.30279 12.7861 8.42814 15.0555 8.42814C17.325 8.42814 19.6208 8.30279 21.943 8.0521C24.2653 7.8014 26.4555 7.39897 28.5139 6.84481L29.3055 10.0115C27.8278 10.4073 26.2708 10.7372 24.6347 11.0011C22.9986 11.2649 21.3889 11.4629 19.8055 11.5948V32.1781H16.6389V22.6781H13.4722V32.1781H10.3055Z" fill="#0C1C2E"/>
</svg>
