<svg width="16" height="18" viewBox="0 0 16 18" fill="none" xmlns="http://www.w3.org/2000/svg">
<path d="M13.7715 1.61431C13.5372 1.37986 13.2589 1.19389 12.9527 1.06703C12.6464 0.940178 12.3182 0.874923 11.9867 0.875C11.6553 0.875077 11.327 0.940486 11.0209 1.06748C10.7147 1.19448 10.4365 1.38058 10.2023 1.61515L2.27982 9.54848C1.80776 10.0216 1.54255 10.6626 1.54232 11.331V14.0001C1.54232 14.3451 1.82232 14.6251 2.16732 14.6251H4.85315C5.52232 14.6251 6.16398 14.3585 6.63648 13.886L14.5532 5.96431C15.0254 5.49096 15.2906 4.84962 15.2906 4.18098C15.2906 3.51234 15.0254 2.871 14.5532 2.39765L13.7715 1.61431ZM1.33398 15.8751C1.16822 15.8751 1.00925 15.941 0.892043 16.0582C0.774832 16.1754 0.708984 16.3344 0.708984 16.5001C0.708984 16.6659 0.774832 16.8249 0.892043 16.9421C1.00925 17.0593 1.16822 17.1251 1.33398 17.1251H14.6673C14.8331 17.1251 14.992 17.0593 15.1093 16.9421C15.2265 16.8249 15.2923 16.6659 15.2923 16.5001C15.2923 16.3344 15.2265 16.1754 15.1093 16.0582C14.992 15.941 14.8331 15.8751 14.6673 15.8751H1.33398Z" fill="white"/>
</svg>
