<svg width="24" height="20" viewBox="0 0 24 20" fill="none" xmlns="http://www.w3.org/2000/svg">
<path fill-rule="evenodd" clip-rule="evenodd" d="M1.85705 1.96056C0.5 3.31761 0.5 5.50175 0.5 9.87002C0.5 14.2383 0.5 16.4224 1.85705 17.7795C3.2141 19.1365 5.39823 19.1365 9.76651 19.1365H14.3998C18.768 19.1365 20.9522 19.1365 22.3092 17.7795C23.6663 16.4224 23.6663 14.2383 23.6663 9.87002C23.6663 5.50175 23.6663 3.31761 22.3092 1.96056C20.9522 0.603516 18.768 0.603516 14.3998 0.603516H9.76651C5.39823 0.603516 3.2141 0.603516 1.85705 1.96056ZM19.7004 4.68062C20.0075 5.0492 19.9577 5.597 19.5892 5.90415L17.045 8.02433C16.0183 8.87993 15.1861 9.5734 14.4517 10.0458C13.6866 10.5378 12.9415 10.8487 12.0831 10.8487C11.2247 10.8487 10.4796 10.5378 9.71459 10.0458C8.98015 9.57341 8.14801 8.87994 7.12133 8.02434L4.5771 5.90415C4.20852 5.597 4.15872 5.0492 4.46587 4.68062C4.77303 4.31203 5.32082 4.26224 5.6894 4.56939L8.19008 6.65329C9.27074 7.55384 10.021 8.17705 10.6544 8.58444C11.2676 8.97881 11.6834 9.11118 12.0831 9.11118C12.4828 9.11118 12.8987 8.97881 13.5118 8.58444C14.1452 8.17705 14.8955 7.55384 15.9762 6.65329L18.4769 4.56939C18.8454 4.26224 19.3932 4.31203 19.7004 4.68062Z" fill="black" fill-opacity="0.4"/>
</svg>
