<svg width="15" height="17" viewBox="0 0 15 17" fill="none" xmlns="http://www.w3.org/2000/svg">
<path d="M2.55 2.55002C3.20002 1.89993 3.97172 1.38425 4.82105 1.03242C5.67037 0.680596 6.58068 0.499512 7.5 0.499512C8.41931 0.499512 9.32962 0.680596 10.1789 1.03242C11.0283 1.38425 11.8 1.89993 12.45 2.55002C13.763 3.86378 14.5005 5.64514 14.5005 7.50252C14.5005 9.35989 13.763 11.1413 12.45 12.455L11.322 13.569L8.887 15.939C8.5372 16.2775 8.07565 16.4764 7.58935 16.4981C7.10306 16.5199 6.6256 16.363 6.247 16.057L6.114 15.939L4.071 13.954L2.551 12.455C1.23833 11.1413 0.500977 9.36015 0.500977 7.50302C0.500977 5.64589 1.23833 3.86473 2.551 2.55102M7.5 5.00002C6.83696 5.00002 6.20107 5.26341 5.73223 5.73225C5.26339 6.20109 5 6.83698 5 7.50002C5 8.16306 5.26339 8.79894 5.73223 9.26778C6.20107 9.73662 6.83696 10 7.5 10C8.16304 10 8.79892 9.73662 9.26776 9.26778C9.7366 8.79894 10 8.16306 10 7.50002C10 6.83698 9.7366 6.20109 9.26776 5.73225C8.79892 5.26341 8.16304 5.00002 7.5 5.00002Z" fill="black" fill-opacity="0.4"/>
</svg>
