<svg width="13" height="13" viewBox="0 0 13 13" fill="none" xmlns="http://www.w3.org/2000/svg">
<path d="M4.88744 2.76491C5.60521 1.4773 5.9641 0.833496 6.50065 0.833496C7.03721 0.833496 7.39609 1.4773 8.11386 2.76491L8.29955 3.09803C8.50352 3.46393 8.6055 3.64687 8.76452 3.76759C8.92353 3.8883 9.12157 3.93311 9.51765 4.02272L9.87825 4.10431C11.2721 4.41968 11.969 4.57736 12.1348 5.11054C12.3006 5.64373 11.8255 6.1993 10.8753 7.31045L10.6294 7.59792C10.3594 7.91367 10.2244 8.07155 10.1637 8.26687C10.1029 8.46218 10.1233 8.67282 10.1642 9.09411L10.2013 9.47765C10.345 10.9602 10.4168 11.7014 9.98273 12.0309C9.54865 12.3605 8.89613 12.06 7.5911 11.4592L7.25348 11.3037C6.88263 11.1329 6.6972 11.0476 6.50065 11.0476C6.3041 11.0476 6.11868 11.1329 5.74783 11.3037L5.4102 11.4592C4.10517 12.06 3.45265 12.3605 3.01857 12.0309C2.58449 11.7014 2.65632 10.9602 2.79998 9.47765L2.83714 9.09411C2.87797 8.67282 2.89838 8.46218 2.83764 8.26687C2.7769 8.07155 2.64189 7.91367 2.37187 7.59792L2.12604 7.31045C1.17583 6.1993 0.700718 5.64373 0.866523 5.11054C1.03233 4.57736 1.72924 4.41968 3.12305 4.10431L3.48365 4.02272C3.87973 3.93311 4.07777 3.8883 4.23679 3.76759C4.3958 3.64687 4.49778 3.46393 4.70175 3.09803L4.88744 2.76491Z" fill="black" fill-opacity="0.3"/>
</svg>
