<svg width="13" height="13" viewBox="0 0 13 13" fill="none" xmlns="http://www.w3.org/2000/svg">
<path d="M5.05346 2.93141C5.77123 1.6438 6.13011 1 6.66667 1C7.20322 1 7.56211 1.6438 8.27987 2.93141L8.46557 3.26453C8.66954 3.63043 8.77152 3.81338 8.93053 3.93409C9.08954 4.0548 9.28758 4.09961 9.68366 4.18923L10.0443 4.27082C11.4381 4.58618 12.135 4.74386 12.3008 5.27705C12.4666 5.81023 11.9915 6.3658 11.0413 7.47695L10.7954 7.76442C10.5254 8.08018 10.3904 8.23805 10.3297 8.43337C10.2689 8.62869 10.2894 8.83933 10.3302 9.26061L10.3673 9.64415C10.511 11.1267 10.5828 11.8679 10.1487 12.1975C9.71467 12.527 9.06215 12.2265 7.75712 11.6257L7.41949 11.4702C7.04864 11.2995 6.86322 11.2141 6.66667 11.2141C6.47012 11.2141 6.28469 11.2995 5.91384 11.4702L5.57621 11.6257C4.27118 12.2265 3.61867 12.527 3.18458 12.1975C2.7505 11.8679 2.82233 11.1267 2.96599 9.64416L3.00316 9.26061C3.04398 8.83933 3.06439 8.62869 3.00366 8.43337C2.94292 8.23805 2.80791 8.08018 2.53789 7.76442L2.29206 7.47696C1.34184 6.36581 0.866734 5.81023 1.03254 5.27705C1.19834 4.74386 1.89525 4.58618 3.28907 4.27082L3.64967 4.18923C4.04575 4.09961 4.24379 4.0548 4.4028 3.93409C4.56181 3.81338 4.6638 3.63043 4.86776 3.26453L5.05346 2.93141Z" fill="black" fill-opacity="0.3"/>
<g clip-path="url(#clip0_6764_1921)">
<path d="M5.05346 2.93141C5.77123 1.6438 6.13011 1 6.66667 1C7.20322 1 7.56211 1.6438 8.27987 2.93141L8.46557 3.26453C8.66954 3.63043 8.77152 3.81338 8.93053 3.93409C9.08954 4.0548 9.28758 4.09961 9.68366 4.18923L10.0443 4.27082C11.4381 4.58618 12.135 4.74386 12.3008 5.27705C12.4666 5.81023 11.9915 6.3658 11.0413 7.47695L10.7954 7.76442C10.5254 8.08018 10.3904 8.23805 10.3297 8.43337C10.2689 8.62869 10.2894 8.83933 10.3302 9.26061L10.3673 9.64415C10.511 11.1267 10.5828 11.8679 10.1487 12.1975C9.71467 12.527 9.06215 12.2265 7.75712 11.6257L7.41949 11.4702C7.04864 11.2995 6.86322 11.2141 6.66667 11.2141C6.47012 11.2141 6.28469 11.2995 5.91384 11.4702L5.57621 11.6257C4.27118 12.2265 3.61867 12.527 3.18458 12.1975C2.7505 11.8679 2.82233 11.1267 2.96599 9.64416L3.00316 9.26061C3.04398 8.83933 3.06439 8.62869 3.00366 8.43337C2.94292 8.23805 2.80791 8.08018 2.53789 7.76442L2.29206 7.47696C1.34184 6.36581 0.866734 5.81023 1.03254 5.27705C1.19834 4.74386 1.89525 4.58618 3.28907 4.27082L3.64967 4.18923C4.04575 4.09961 4.24379 4.0548 4.4028 3.93409C4.56181 3.81338 4.6638 3.63043 4.86776 3.26453L5.05346 2.93141Z" fill="#F5CC24"/>
</g>
<defs>
<clipPath id="clip0_6764_1921">
<rect width="6.6" height="13" fill="white"/>
</clipPath>
</defs>
</svg>
