<svg width="24" height="24" viewBox="0 0 24 24" fill="none" xmlns="http://www.w3.org/2000/svg">
<path d="M9.08142 18.5935C9.75429 19.4488 10.8113 20 12 20C13.1886 20 14.2457 19.4488 14.9186 18.5935C12.9811 18.856 11.0188 18.856 9.08142 18.5935Z" fill="#AAAAAD"/>
<path d="M17.3993 9.6V10.1633C17.3993 10.8393 17.5922 11.5001 17.9537 12.0626L18.8397 13.4409C19.6489 14.6999 19.0311 16.4111 17.6237 16.8092C13.9418 17.8507 10.0582 17.8507 6.37628 16.8092C4.96882 16.4111 4.35105 14.6999 5.16027 13.4409L6.04623 12.0626C6.40776 11.5001 6.60068 10.8393 6.60068 10.1633V9.6C6.60068 6.5072 9.01803 4 12 4C14.9819 4 17.3993 6.50721 17.3993 9.6Z" fill="#AAAAAD"/>
</svg>
