<svg width="16" height="17" viewBox="0 0 16 17" fill="none" xmlns="http://www.w3.org/2000/svg">
<path fill-rule="evenodd" clip-rule="evenodd" d="M2.6 7.44408V5.80039C2.6 2.81805 5.01766 0.400391 8 0.400391C10.9823 0.400391 13.4 2.81805 13.4 5.80039V7.44408C14.2918 7.51068 14.8726 7.67883 15.2971 8.10333C16 8.80628 16 9.93765 16 12.2004C16 14.4631 16 15.5945 15.2971 16.2974C14.5941 17.0004 13.4627 17.0004 11.2 17.0004H4.8C2.53726 17.0004 1.40589 17.0004 0.702944 16.2974C0 15.5945 0 14.4631 0 12.2004C0 9.93765 0 8.80628 0.702944 8.10333C1.12745 7.67883 1.7082 7.51068 2.6 7.44408ZM3.8 5.80039C3.8 3.48079 5.6804 1.60039 8 1.60039C10.3196 1.60039 12.2 3.48079 12.2 5.80039V7.40325C11.8936 7.40039 11.5612 7.40039 11.2 7.40039H4.8C4.43879 7.40039 4.10641 7.40039 3.8 7.40325V5.80039Z" fill="black"/>
</svg>
