<svg width="28" height="27" viewBox="0 0 28 27" fill="none" xmlns="http://www.w3.org/2000/svg">
<path fill-rule="evenodd" clip-rule="evenodd" d="M27.7946 13.5003C27.7946 20.9105 21.7875 26.9177 14.3773 26.9177C6.9671 26.9177 0.959961 20.9105 0.959961 13.5003C0.959961 6.09015 6.9671 0.0830078 14.3773 0.0830078C21.7875 0.0830078 27.7946 6.09015 27.7946 13.5003ZM10.3113 9.43441C10.7043 9.04143 11.3415 9.04143 11.7345 9.43441L14.3772 12.0772L17.02 9.43444C17.413 9.04146 18.0501 9.04146 18.4431 9.43444C18.8361 9.82743 18.8361 10.4646 18.4431 10.8576L15.8004 13.5003L18.4431 16.143C18.8361 16.536 18.8361 17.1732 18.4431 17.5662C18.0501 17.9592 17.413 17.9592 17.02 17.5662L14.3772 14.9234L11.7345 17.5662C11.3415 17.9592 10.7044 17.9592 10.3114 17.5662C9.91838 17.1732 9.91838 16.5361 10.3114 16.1431L12.9541 13.5003L10.3113 10.8575C9.91835 10.4646 9.91835 9.8274 10.3113 9.43441Z" fill="black"/>
</svg>
