<svg width="192" height="192" viewBox="0 0 192 192" fill="none" xmlns="http://www.w3.org/2000/svg">
<rect x="0.5" y="0.5" width="191" height="191" rx="95.5" stroke="#A8E543" stroke-opacity="0.02"/>
<rect x="22.5" y="22.5" width="147" height="147" rx="73.5" stroke="#A8E543" stroke-opacity="0.07"/>
<rect x="44.5" y="44.5" width="103" height="103" rx="51.5" stroke="#A8E543" stroke-opacity="0.11"/>
<g clip-path="url(#clip0_462_528)">
<rect x="63" y="63" width="65" height="65" rx="32.5" fill="#2B2B31"/>
<path fill-rule="evenodd" clip-rule="evenodd" d="M128.734 95.5C128.734 113.449 114.184 128 96.2344 128C78.2851 128 63.7344 113.449 63.7344 95.5C63.7344 77.5507 78.2851 63 96.2344 63C114.184 63 128.734 77.5507 128.734 95.5ZM96.2344 114.188C97.5806 114.188 98.6719 113.096 98.6719 111.75V92.25C98.6719 90.9038 97.5806 89.8125 96.2344 89.8125C94.8882 89.8125 93.7969 90.9038 93.7969 92.25V111.75C93.7969 113.096 94.8882 114.188 96.2344 114.188ZM96.2344 79.25C98.0293 79.25 99.4844 80.7051 99.4844 82.5C99.4844 84.2949 98.0293 85.75 96.2344 85.75C94.4394 85.75 92.9844 84.2949 92.9844 82.5C92.9844 80.7051 94.4394 79.25 96.2344 79.25Z" fill="#A8E543"/>
</g>
<defs>
<clipPath id="clip0_462_528">
<rect x="63" y="63" width="65" height="65" rx="32.5" fill="white"/>
</clipPath>
</defs>
</svg>
