<svg width="47" height="47" viewBox="0 0 47 47" fill="none" xmlns="http://www.w3.org/2000/svg">
<rect x="0.382812" y="0.644531" width="45.8697" height="45.8697" rx="22.9349" fill="#535357"/>
<path fill-rule="evenodd" clip-rule="evenodd" d="M14.3987 33.7723C14.3987 33.3501 14.741 33.0078 15.1632 33.0078H31.4724C31.8946 33.0078 32.2369 33.3501 32.2369 33.7723C32.2369 34.1945 31.8946 34.5368 31.4724 34.5368H15.1632C14.741 34.5368 14.3987 34.1945 14.3987 33.7723Z" fill="#A8E543"/>
<path d="M21.8601 27.4729C22.1196 27.2706 22.3549 27.0352 22.8256 26.5646L28.8566 20.5335C28.0358 20.1919 27.0636 19.6307 26.1442 18.7113C25.2246 17.7917 24.6633 16.8193 24.3217 15.9984L18.2906 22.0296L18.2906 22.0296C17.8199 22.5002 17.5846 22.7355 17.3822 22.995C17.1435 23.3011 16.9388 23.6323 16.7718 23.9827C16.6302 24.2797 16.525 24.5955 16.3145 25.2269L15.2046 28.5567C15.101 28.8675 15.1819 29.2101 15.4135 29.4417C15.6451 29.6733 15.9877 29.7542 16.2984 29.6506L19.6282 28.5406C20.2597 28.3302 20.5754 28.2249 20.8724 28.0834C21.2229 27.9164 21.554 27.7117 21.8601 27.4729Z" fill="#A8E543"/>
<path d="M30.5302 18.86C31.7825 17.6077 31.7825 15.5773 30.5302 14.325C29.2779 13.0727 27.2475 13.0727 25.9952 14.325L25.2718 15.0483C25.2817 15.0782 25.292 15.1086 25.3026 15.1393C25.5678 15.9035 26.068 16.9053 27.0091 17.8463C27.9501 18.7874 28.9519 19.2876 29.7161 19.5528C29.7467 19.5634 29.7769 19.5736 29.8067 19.5835L30.5302 18.86Z" fill="#A8E543"/>
</svg>
