<svg width="23" height="25" viewBox="0 0 23 25" fill="none" xmlns="http://www.w3.org/2000/svg">
<path d="M6.97684 22.7096C7.98614 23.9925 9.57171 24.8193 11.3547 24.8193C13.1377 24.8193 14.7232 23.9926 15.7325 22.7096C12.8264 23.1033 9.88298 23.1033 6.97684 22.7096Z" fill="#16263D"/>
<path d="M19.4536 9.21933V10.0643C19.4536 11.0782 19.743 12.0695 20.2853 12.9132L21.6143 14.9807C22.8281 16.8692 21.9014 19.436 19.7903 20.0332C14.2674 21.5954 8.44198 21.5954 2.91912 20.0332C0.807943 19.436 -0.118724 16.8692 1.09512 14.9807L2.42405 12.9132C2.96635 12.0695 3.25573 11.0782 3.25573 10.0643V9.21933C3.25573 4.58014 6.88176 0.819336 11.3547 0.819336C15.8276 0.819336 19.4536 4.58014 19.4536 9.21933Z" fill="#16263D"/>
</svg>
