<svg width="153" height="152" viewBox="0 0 153 152" fill="none" xmlns="http://www.w3.org/2000/svg">
<rect x="0.529297" y="0.0518036" width="151.586" height="151.586" rx="75.7928" fill="#266CA8" fill-opacity="0.1"/>
<rect x="13.9043" y="13.427" width="124.835" height="124.835" rx="62.4176" fill="#266CA8" fill-opacity="0.1"/>
<path fill-rule="evenodd" clip-rule="evenodd" d="M123.974 75.5938C123.974 102.048 102.528 123.494 76.0737 123.494C49.6193 123.494 28.1738 102.048 28.1738 75.5938C28.1738 49.1394 49.6193 27.6939 76.0737 27.6939C102.528 27.6939 123.974 49.1394 123.974 75.5938ZM76.0737 103.136C78.0578 103.136 79.6662 101.528 79.6662 99.5437V70.8038C79.6662 68.8197 78.0578 67.2113 76.0737 67.2113C74.0896 67.2113 72.4812 68.8197 72.4812 70.8038V99.5437C72.4812 101.528 74.0896 103.136 76.0737 103.136ZM76.0737 51.6438C78.7191 51.6438 80.8637 53.7884 80.8637 56.4338C80.8637 59.0793 78.7191 61.2238 76.0737 61.2238C73.4283 61.2238 71.2837 59.0793 71.2837 56.4338C71.2837 53.7884 73.4283 51.6438 76.0737 51.6438Z" fill="#266CA8"/>
</svg>
