<svg width="317" height="318" viewBox="0 0 317 318" fill="none" xmlns="http://www.w3.org/2000/svg">
<path d="M315.645 285.193C323.29 270.064 301.441 194.42 149.948 194.42C40.6004 194.42 -9.58725 256.336 1.50823 287.715" fill="url(#paint0_radial_6117_3442)"/>
<mask id="mask0_6117_3442" style="mask-type:luminance" maskUnits="userSpaceOnUse" x="0" y="194" width="317" height="94">
<path d="M315.645 285.193C323.29 270.064 301.441 194.42 149.948 194.42C40.6004 194.42 -9.58725 256.336 1.50823 287.715" fill="white"/>
</mask>
<g mask="url(#mask0_6117_3442)">
<ellipse opacity="0.671968" cx="126.583" cy="236.84" rx="8.33142" ry="4.62769" fill="#645F5F"/>
<ellipse opacity="0.729957" cx="211.618" cy="229.776" rx="13.1451" ry="7.2192" fill="#645F5F"/>
<ellipse opacity="0.729957" cx="62.0221" cy="210.524" rx="13.1451" ry="7.2192" fill="#645F5F"/>
</g>
<g opacity="0.320685">
<ellipse cx="245.848" cy="68.2485" rx="8.88685" ry="8.88517" fill="#645F5F"/>
<path d="M240.274 61.2024C236.459 60.6648 233.671 61.0862 233.148 62.524C232.309 64.8296 237.61 68.8756 244.99 71.5609C252.369 74.2463 259.032 74.5541 259.871 72.2485C260.399 70.7978 257.978 68.768 254.656 66.7117" stroke="#645F5F" stroke-width="4.44342"/>
<path d="M254.752 68.2485C254.752 63.3413 250.773 59.3633 245.865 59.3633C240.957 59.3633 237.882 62.5007 237.248 66.0383C237.248 66.0383 242.357 69.2364 244.715 69.9238C245.468 70.143 246.214 70.4274 246.973 70.6795C247.823 70.9615 248.687 71.2102 249.563 71.4261C250.162 71.5737 250.983 71.802 251.749 71.9445C252.76 72.1325 253.666 72.2164 253.737 72.2164C253.862 72.2164 254 71.6577 254.283 71.0067C254.566 70.3556 254.752 68.2485 254.752 68.2485Z" fill="#645F5F"/>
</g>
<circle opacity="0.418364" cx="50.5928" cy="120.666" r="10.3623" fill="#645F5F"/>
<ellipse opacity="0.5" cx="162.749" cy="209.05" rx="31.0869" ry="8.53365" fill="#645F5F"/>
<path d="M150.832 33.3237L154.269 34.5746L90.6832 209.274C90.3378 210.224 89.2884 210.713 88.3394 210.367C87.3904 210.022 86.9011 208.973 87.2465 208.024L150.832 33.3237Z" fill="#645F5F"/>
<path d="M150.744 33.4082L177.731 51.1889C179.95 52.6506 182.428 53.6736 185.031 54.2026C199.121 57.0655 208.307 70.7043 205.663 84.8368L199.288 118.92C199.259 119.077 199.035 119.082 198.996 118.926C196.038 106.997 184.784 98.9665 172.548 100.121C166.973 100.647 161.439 98.7662 157.341 94.9516L135.681 74.7936L150.744 33.4082Z" fill="#16263D"/>
<circle cx="152.256" cy="32.8209" r="2.43819" transform="rotate(20 152.256 32.8209)" fill="#645F5F"/>
<path d="M111.426 137.809C111.426 137.809 113.254 136.894 113.254 137.199C113.254 137.504 113.254 140.857 113.254 140.857L112.035 141.466L111.426 137.809Z" fill="#FFE9E9"/>
<path d="M146.059 198.855C146.059 198.855 145.444 196.614 143.826 196.468C142.208 196.323 137.651 201.144 136.698 203.134C135.746 205.125 138.348 207.915 141.319 205.234C144.289 202.552 146.059 198.855 146.059 198.855Z" fill="#16263D"/>
<path d="M147.963 205.396L146.105 200.212C145.357 198.124 142.512 197.859 141.39 199.772C141.166 200.154 141.042 200.582 141.049 201.025C141.08 203.121 141.422 209.463 144.394 210.319C147.963 211.345 147.963 205.396 147.963 205.396Z" fill="#16263D"/>
<path d="M170.904 198.855C170.904 198.855 171.519 196.614 173.137 196.468C174.755 196.323 179.312 201.144 180.264 203.134C181.217 205.125 178.615 207.915 175.644 205.234C172.673 202.552 170.904 198.855 170.904 198.855Z" fill="#16263D"/>
<path d="M169 205.396L170.858 200.212C171.606 198.124 174.451 197.859 175.573 199.772C175.796 200.154 175.921 200.582 175.914 201.025C175.883 203.121 175.54 209.463 172.569 210.319C169 211.345 169 205.396 169 205.396Z" fill="#16263D"/>
<path d="M148.486 189.828C148.486 189.828 147.467 191.83 147.467 193.237C146.447 195.521 144.768 198.593 141.859 205.002C139.953 209.201 143.39 210.315 145.987 210.584C147.608 210.751 149.161 210.079 150.422 209.046L158.201 202.67L167.458 210.314C169.138 211.701 171.567 211.691 173.236 210.291C174.951 208.852 175.4 206.345 174.411 204.336C173.3 202.077 171.65 198.539 169.387 193.237C169.387 191.844 168.498 190.509 168.498 190.509L148.486 189.828Z" fill="#16263D"/>
<path d="M170.674 173.98C172.337 176.409 171.893 182.482 171.893 182.482H167.016L168.964 195.577C169.059 196.214 168.704 196.83 168.099 197.051C165.919 197.848 160.757 199.621 157.434 199.817C154.103 200.014 148.447 198.288 146.063 197.498C145.419 197.285 145.053 196.631 145.233 195.977C145.753 194.082 147.127 189.759 150.412 182.482C151.43 183.672 145.682 182.482 145.682 182.482C145.682 182.482 146.041 177.074 147.511 173.98C148.981 170.886 152.387 168.82 152.387 168.82L161.001 167.511C161.001 167.511 164.578 168.21 166.407 169.184C168.236 170.158 169.011 171.551 170.674 173.98Z" fill="#645F5F"/>
<path d="M171.431 182.459L171.237 188.236L170.582 191.126L166.081 209.696L166.799 211.245L167.263 213.256L166.799 214.536L165.58 214.082L163.141 212.098L162.703 210.782C162.594 210.456 162.628 210.099 162.797 209.799L163.992 207.675L167.263 190.338L166.934 182.677L171.431 182.459Z" fill="#FDE7E6"/>
<path d="M145.803 182.677L146.33 188.235L146.984 191.126L151.486 209.696L150.768 211.245L150.304 213.256L150.768 214.536L151.987 214.081L154.425 212.098L154.864 210.782C154.973 210.456 154.938 210.098 154.77 209.799L153.574 207.674L150.304 190.338L150.558 182.677L145.803 182.677Z" fill="#FDE7E6"/>
<path d="M160.479 169.219C160.477 169.223 157.599 173.815 157.599 172.902C157.599 171.992 155.693 169.241 155.678 169.219H160.479ZM160.479 169.218H155.678V162.784H160.479V169.218Z" fill="#8BC63E" fill-opacity="0.08"/>
<ellipse cx="157.8" cy="161.719" rx="4.25693" ry="6.33929" fill="#FFE9E9"/>
<path fill-rule="evenodd" clip-rule="evenodd" d="M153.128 162.776C153.468 161.567 153.468 158.903 154.149 158.816C154.83 158.729 156.193 159.233 157.555 158.254C158.236 157.717 158.576 157.65 158.576 157.38C161.982 158.023 159.945 159.963 161.641 162.101C161.818 162.324 162.323 162.101 162.323 162.101C162.323 162.101 162.323 156.838 161.982 156.368C161.641 155.899 160.279 154.008 159.598 155.357C159.598 154.682 158.236 153.986 156.874 154.503C155.511 155.019 153.468 156.031 153.128 157.38C152.787 158.729 152.447 161.427 153.128 162.776Z" fill="#513450"/>
<defs>
<radialGradient id="paint0_radial_6117_3442" cx="0" cy="0" r="1" gradientUnits="userSpaceOnUse" gradientTransform="translate(137.468 226.775) rotate(-90) scale(54.2435 566.519)">
<stop stop-color="#EBEBEB"/>
<stop offset="0.536775" stop-color="#DCD6D6"/>
<stop offset="1" stop-color="#F5F5F5" stop-opacity="0"/>
</radialGradient>
</defs>
</svg>
