<svg width="20" height="26" viewBox="0 0 20 26" fill="none" xmlns="http://www.w3.org/2000/svg">
<path d="M5.00008 5.5C5.00008 2.7375 7.23758 0.5 10.0001 0.5C12.7626 0.5 15.0001 2.7375 15.0001 5.5C15.0001 8.2625 12.7626 10.5 10.0001 10.5C7.23758 10.5 5.00008 8.2625 5.00008 5.5ZM16.2501 25.5H17.5001C18.8751 25.5 20.0001 24.375 20.0001 23V17.025C20.0001 15.625 19.2376 14.3375 17.9876 13.7C17.4501 13.425 16.8751 13.1625 16.2501 12.925V25.5ZM10.4251 19.25L13.7501 12.1625C12.5876 11.9 11.3376 11.75 10.0001 11.75C6.83758 11.75 4.11258 12.625 2.01258 13.7C1.40265 14.0142 0.891708 14.4912 0.536456 15.0781C0.181204 15.665 -0.0044567 16.3389 8.12379e-05 17.025V25.5H2.92508C2.65008 24.9375 2.50008 24.3 2.50008 23.625C2.50008 21.2125 4.46258 19.25 6.87508 19.25H10.4251ZM7.50008 25.5L9.26258 21.75H6.87508C5.83758 21.75 5.00008 22.5875 5.00008 23.625C5.00008 24.6625 5.83758 25.5 6.87508 25.5H7.50008Z" fill="#F4E9DC"/>
</svg>
