<svg width="26" height="26" viewBox="0 0 26 26" fill="none" xmlns="http://www.w3.org/2000/svg">
<path d="M25.2516 15.925L15.9449 25.22C15.6846 25.48 15.3917 25.675 15.0663 25.805C14.7409 25.935 14.4155 26 14.0901 26C13.7647 26 13.4393 25.935 13.1139 25.805C12.7885 25.675 12.4956 25.48 12.2353 25.22L0.748436 13.7475C0.509804 13.5092 0.325407 13.2329 0.195244 12.9187C0.0650814 12.6046 0 12.2742 0 11.9275V2.6C0 1.885 0.254902 1.27292 0.764706 0.76375C1.27451 0.254583 1.88736 0 2.60325 0H11.9424C12.2895 0 12.6258 0.0704167 12.9512 0.21125C13.2766 0.352083 13.5586 0.541667 13.7972 0.78L25.2516 12.2525C25.5119 12.5125 25.7017 12.805 25.821 13.13C25.9403 13.455 26 13.78 26 14.105C26 14.43 25.9403 14.7496 25.821 15.0637C25.7017 15.3779 25.5119 15.665 25.2516 15.925ZM5.85732 7.8C6.39967 7.8 6.86066 7.61042 7.2403 7.23125C7.61994 6.85208 7.80976 6.39167 7.80976 5.85C7.80976 5.30833 7.61994 4.84792 7.2403 4.46875C6.86066 4.08958 6.39967 3.9 5.85732 3.9C5.31498 3.9 4.85398 4.08958 4.47434 4.46875C4.0947 4.84792 3.90488 5.30833 3.90488 5.85C3.90488 6.39167 4.0947 6.85208 4.47434 7.23125C4.85398 7.61042 5.31498 7.8 5.85732 7.8Z" fill="#F4E9DC"/>
</svg>
