<svg width="28" height="28" viewBox="0 0 28 28" fill="none" xmlns="http://www.w3.org/2000/svg">
<path d="M28 3.5H0V8.75H28V3.5Z" fill="#F4E9DC"/>
<path fill-rule="evenodd" clip-rule="evenodd" d="M28 11.375H0V24.5H28V11.375ZM20.5625 19.25C20.5625 18.6698 20.793 18.1134 21.2032 17.7032C21.6134 17.293 22.1698 17.0625 22.75 17.0625C23.3302 17.0625 23.8866 17.293 24.2968 17.7032C24.707 18.1134 24.9375 18.6698 24.9375 19.25C24.9375 19.8302 24.707 20.3866 24.2968 20.7968C23.8866 21.207 23.3302 21.4375 22.75 21.4375C22.1698 21.4375 21.6134 21.207 21.2032 20.7968C20.793 20.3866 20.5625 19.8302 20.5625 19.25Z" fill="#F4E9DC"/>
</svg>
