<svg width="25" height="25" viewBox="0 0 25 25" fill="none" xmlns="http://www.w3.org/2000/svg">
<path d="M8.51857 15.7192V16.4287C8.51857 17.8811 9.09553 19.274 10.1225 20.3009C11.1495 21.3279 12.5424 21.9049 13.9948 21.9049C15.4472 21.9049 16.8401 21.3279 17.8671 20.3009C18.8941 19.274 19.471 17.8811 19.471 16.4287V14.3964C18.6587 14.1093 17.9741 13.5443 17.5381 12.8012C17.1021 12.0581 16.9428 11.1849 17.0885 10.3357C17.2341 9.48658 17.6753 8.71627 18.3339 8.16094C18.9926 7.60562 19.8264 7.30104 20.688 7.30104C21.5495 7.30104 22.3833 7.60562 23.042 8.16094C23.7006 8.71627 24.1418 9.48658 24.2874 10.3357C24.4331 11.1849 24.2738 12.0581 23.8378 12.8012C23.4018 13.5443 22.7172 14.1093 21.9049 14.3964V16.4287C21.9049 18.5266 21.0715 20.5385 19.5881 22.022C18.1046 23.5054 16.0927 24.3388 13.9948 24.3388C11.8969 24.3388 9.88494 23.5054 8.40151 22.022C6.91808 20.5385 6.08469 18.5266 6.08469 16.4287V15.7192C4.38311 15.4316 2.8384 14.5506 1.72456 13.2324C0.610713 11.9143 -0.000264583 10.2443 8.59527e-08 8.51857V2.43388C8.59527e-08 1.78837 0.256426 1.16931 0.712866 0.712866C1.16931 0.256426 1.78837 0 2.43388 0L3.65082 0C3.97357 0 4.2831 0.128213 4.51132 0.356433C4.73954 0.584653 4.86775 0.894186 4.86775 1.21694C4.86775 1.53969 4.73954 1.84922 4.51132 2.07744C4.2831 2.30566 3.97357 2.43388 3.65082 2.43388H2.43388V8.51857C2.43388 9.80958 2.94673 11.0477 3.85961 11.9606C4.77249 12.8735 6.01062 13.3863 7.30163 13.3863C8.59264 13.3863 9.83077 12.8735 10.7437 11.9606C11.6565 11.0477 12.1694 9.80958 12.1694 8.51857V2.43388H10.9524C10.6297 2.43388 10.3202 2.30566 10.0919 2.07744C9.86372 1.84922 9.73551 1.53969 9.73551 1.21694C9.73551 0.894186 9.86372 0.584653 10.0919 0.356433C10.3202 0.128213 10.6297 0 10.9524 0L12.1694 0C12.8149 0 13.434 0.256426 13.8904 0.712866C14.3468 1.16931 14.6033 1.78837 14.6033 2.43388V8.51857C14.6035 10.2443 13.9926 11.9143 12.8787 13.2324C11.7649 14.5506 10.2202 15.4316 8.51857 15.7192ZM20.688 12.1694C21.0107 12.1694 21.3202 12.0412 21.5485 11.813C21.7767 11.5847 21.9049 11.2752 21.9049 10.9524C21.9049 10.6297 21.7767 10.3202 21.5485 10.0919C21.3202 9.86372 21.0107 9.73551 20.688 9.73551C20.3652 9.73551 20.0557 9.86372 19.8275 10.0919C19.5992 10.3202 19.471 10.6297 19.471 10.9524C19.471 11.2752 19.5992 11.5847 19.8275 11.813C20.0557 12.0412 20.3652 12.1694 20.688 12.1694Z" fill="#F4E9DC"/>
</svg>
