<svg width="32" height="35" viewBox="0 0 32 35" fill="none" xmlns="http://www.w3.org/2000/svg">
<path d="M2.34001 32.1599V7.03167L8.53887 13.4385L3.62971 18.3061L7.99803 22.6744L9.91176 20.7607L7.582 18.3061L15.9442 9.90228C17.1757 8.30473 16.2909 6.85139 15.6946 6.32442L10.5358 11.5248L-0.447388 0.541603V34.4897C1.71597 34.3565 2.31228 32.881 2.34001 32.1599Z" fill="black"/>
<path d="M15.6946 30.371L27.8011 18.3477C26.2701 16.8833 24.7224 17.5988 24.14 18.1397L15.6946 26.5019L12.8656 23.5897L29.1324 7.11488V31.9935C29.4319 34.1901 31.06 34.5729 31.8366 34.4897V0.5L8.87169 23.6313L15.6946 30.371Z" fill="black"/>
</svg>
