<svg width="14" height="13" viewBox="0 0 14 13" fill="none" xmlns="http://www.w3.org/2000/svg">
<path d="M12.83 2.84375V11.4102C12.83 11.668 12.7363 11.8906 12.5488 12.0781C12.3613 12.2656 12.1386 12.3594 11.8808 12.3594H3.31439C3.04877 12.3594 2.8222 12.2656 2.6347 12.0781C2.4472 11.8906 2.35345 11.668 2.35345 11.4102C2.35345 11.1445 2.4472 10.9199 2.6347 10.7363C2.8222 10.5527 3.04877 10.4609 3.31439 10.4609H9.58392L1.11127 1.98828C0.923767 1.80078 0.830017 1.57617 0.830017 1.31445C0.830017 1.05273 0.923767 0.828125 1.11127 0.640625C1.29877 0.453125 1.52338 0.359375 1.7851 0.359375C2.04681 0.359375 2.27142 0.453125 2.45892 0.640625L10.9316 9.11328V2.84375C10.9316 2.57812 11.0234 2.35352 11.207 2.16992C11.3906 1.98633 11.6152 1.89453 11.8808 1.89453C12.1386 1.89453 12.3613 1.98633 12.5488 2.16992C12.7363 2.35352 12.83 2.57812 12.83 2.84375Z" fill="#212121"/>
</svg>
