<svg width="112" height="122" viewBox="0 0 112 122" fill="none" xmlns="http://www.w3.org/2000/svg">
<path d="M20.8995 84.1153V18.07L37.1921 34.9094L24.2892 47.7029L35.7706 59.1843L40.8005 54.1543L34.6771 47.7029L56.6558 25.6149C59.8924 21.416 57.567 17.5962 55.9997 16.2111L42.4407 29.8794L13.5732 1.01193V90.2387C19.2593 89.8888 20.8266 86.0106 20.8995 84.1153Z" fill="#F3E3D1"/>
<path d="M55.9997 79.4134L87.8195 47.8122C83.7956 43.9632 79.7279 45.844 78.197 47.2655L55.9997 69.2442L48.5641 61.5899L91.3186 18.2887V83.6779C92.1059 89.4514 96.385 90.4574 98.4261 90.2387V0.902588L38.0669 61.6992L55.9997 79.4134Z" fill="#F3E3D1"/>
<path d="M9.74244 115.632V117.266H1.70694V105.551H9.59394V107.184H3.55494V110.517H8.78544V112.052H3.55494V115.632H9.74244ZM14.1407 117.431C13.4147 117.431 12.7272 117.315 12.0782 117.084C11.4292 116.842 10.8737 116.485 10.4117 116.012L11.0882 114.791C11.5832 115.231 12.0782 115.55 12.5732 115.748C13.0792 115.946 13.5797 116.045 14.0747 116.045C14.5807 116.045 14.9932 115.951 15.3122 115.764C15.6312 115.566 15.7907 115.28 15.7907 114.906C15.7907 114.631 15.7082 114.428 15.5432 114.296C15.3782 114.164 15.1362 114.048 14.8172 113.949C14.5092 113.85 14.1352 113.74 13.6952 113.619C13.0792 113.432 12.5622 113.24 12.1442 113.042C11.7262 112.833 11.4127 112.58 11.2037 112.283C10.9947 111.986 10.8902 111.606 10.8902 111.144C10.8902 110.583 11.0332 110.105 11.3192 109.709C11.6052 109.313 12.0012 109.01 12.5072 108.801C13.0242 108.592 13.6182 108.488 14.2892 108.488C14.9162 108.488 15.4937 108.587 16.0217 108.785C16.5607 108.972 17.0337 109.269 17.4407 109.676L16.6652 110.88C16.2802 110.528 15.8842 110.27 15.4772 110.105C15.0812 109.94 14.6522 109.857 14.1902 109.857C13.9262 109.857 13.6732 109.89 13.4312 109.956C13.1892 110.011 12.9857 110.121 12.8207 110.286C12.6667 110.44 12.5897 110.66 12.5897 110.946C12.5897 111.177 12.6557 111.364 12.7877 111.507C12.9197 111.65 13.1177 111.771 13.3817 111.87C13.6457 111.969 13.9702 112.079 14.3552 112.2C15.0262 112.398 15.5982 112.596 16.0712 112.794C16.5442 112.981 16.9072 113.229 17.1602 113.537C17.4242 113.834 17.5562 114.246 17.5562 114.774C17.5562 115.61 17.2427 116.265 16.6157 116.738C15.9997 117.2 15.1747 117.431 14.1407 117.431ZM23.6321 116.82C23.4781 116.897 23.2856 116.98 23.0546 117.068C22.8236 117.156 22.5596 117.233 22.2626 117.299C21.9766 117.365 21.6796 117.398 21.3716 117.398C20.9976 117.398 20.6511 117.332 20.3321 117.2C20.0131 117.068 19.7546 116.859 19.5566 116.573C19.3696 116.276 19.2761 115.896 19.2761 115.434V110.039H18.1376V108.636H19.2761V105.798H21.0911V108.636H22.9721V110.039H21.0911V114.857C21.1131 115.154 21.2066 115.374 21.3716 115.517C21.5476 115.66 21.7621 115.731 22.0151 115.731C22.2681 115.731 22.5101 115.687 22.7411 115.599C22.9721 115.511 23.1426 115.44 23.2526 115.385L23.6321 116.82ZM32.2977 117.266H30.4827V112.431C30.4827 111.65 30.3397 111.067 30.0537 110.682C29.7677 110.297 29.3662 110.105 28.8492 110.105C28.5302 110.105 28.2002 110.193 27.8592 110.369C27.5182 110.545 27.2157 110.787 26.9517 111.095C26.6877 111.392 26.4952 111.738 26.3742 112.134V117.266H24.5592V105.221H26.3742V110.369C26.7042 109.786 27.1552 109.329 27.7272 108.999C28.2992 108.658 28.9152 108.488 29.5752 108.488C30.1142 108.488 30.5597 108.581 30.9117 108.768C31.2637 108.955 31.5387 109.214 31.7367 109.544C31.9457 109.863 32.0887 110.237 32.1657 110.666C32.2537 111.084 32.2977 111.529 32.2977 112.002V117.266ZM37.9849 117.431C37.3139 117.431 36.7034 117.315 36.1534 117.084C35.6144 116.842 35.1469 116.518 34.7509 116.111C34.3549 115.693 34.0469 115.22 33.8269 114.692C33.6179 114.153 33.5134 113.581 33.5134 112.976C33.5134 112.162 33.7004 111.419 34.0744 110.748C34.4484 110.066 34.9709 109.522 35.6419 109.115C36.3129 108.697 37.0994 108.488 38.0014 108.488C38.9034 108.488 39.6789 108.697 40.3279 109.115C40.9879 109.522 41.4994 110.061 41.8624 110.732C42.2254 111.403 42.4069 112.123 42.4069 112.893C42.4069 113.025 42.4014 113.152 42.3904 113.273C42.3794 113.383 42.3684 113.476 42.3574 113.553H35.4439C35.4769 114.059 35.6144 114.505 35.8564 114.89C36.1094 115.264 36.4284 115.561 36.8134 115.781C37.1984 115.99 37.6109 116.094 38.0509 116.094C38.5349 116.094 38.9914 115.973 39.4204 115.731C39.8604 115.489 40.1574 115.17 40.3114 114.774L41.8624 115.22C41.6754 115.638 41.3894 116.017 41.0044 116.358C40.6304 116.688 40.1849 116.952 39.6679 117.15C39.1509 117.337 38.5899 117.431 37.9849 117.431ZM35.3944 112.349H40.6084C40.5754 111.854 40.4324 111.419 40.1794 111.045C39.9374 110.66 39.6239 110.363 39.2389 110.154C38.8649 109.934 38.4469 109.824 37.9849 109.824C37.5339 109.824 37.1159 109.934 36.7309 110.154C36.3569 110.363 36.0489 110.66 35.8069 111.045C35.5649 111.419 35.4274 111.854 35.3944 112.349ZM48.2783 116.82C48.1243 116.897 47.9318 116.98 47.7008 117.068C47.4698 117.156 47.2058 117.233 46.9088 117.299C46.6228 117.365 46.3258 117.398 46.0178 117.398C45.6438 117.398 45.2973 117.332 44.9783 117.2C44.6593 117.068 44.4008 116.859 44.2028 116.573C44.0158 116.276 43.9223 115.896 43.9223 115.434V110.039H42.7838V108.636H43.9223V105.798H45.7373V108.636H47.6183V110.039H45.7373V114.857C45.7593 115.154 45.8528 115.374 46.0178 115.517C46.1938 115.66 46.4083 115.731 46.6613 115.731C46.9143 115.731 47.1563 115.687 47.3873 115.599C47.6183 115.511 47.7888 115.44 47.8988 115.385L48.2783 116.82ZM49.2054 117.266V108.636H51.0204V117.266H49.2054ZM49.2054 107.217V105.221H51.0204V107.217H49.2054ZM56.782 117.431C56.111 117.431 55.5005 117.315 54.9505 117.084C54.4115 116.842 53.944 116.512 53.548 116.094C53.152 115.676 52.844 115.198 52.624 114.659C52.415 114.12 52.3105 113.548 52.3105 112.943C52.3105 112.129 52.492 111.386 52.855 110.715C53.229 110.044 53.746 109.505 54.406 109.098C55.077 108.691 55.869 108.488 56.782 108.488C57.662 108.488 58.4265 108.686 59.0755 109.082C59.7355 109.467 60.2195 109.984 60.5275 110.633L58.762 111.194C58.564 110.831 58.2835 110.55 57.9205 110.352C57.5685 110.143 57.178 110.039 56.749 110.039C56.265 110.039 55.825 110.165 55.429 110.418C55.044 110.66 54.736 111.001 54.505 111.441C54.285 111.87 54.175 112.371 54.175 112.943C54.175 113.493 54.2905 113.993 54.5215 114.444C54.7525 114.884 55.0605 115.236 55.4455 115.5C55.8415 115.753 56.2815 115.88 56.7655 115.88C57.0625 115.88 57.3485 115.83 57.6235 115.731C57.9095 115.621 58.157 115.478 58.366 115.302C58.575 115.115 58.7235 114.912 58.8115 114.692L60.5935 115.22C60.4065 115.649 60.126 116.028 59.752 116.358C59.389 116.688 58.9545 116.952 58.4485 117.15C57.9535 117.337 57.398 117.431 56.782 117.431ZM75.5865 117.266V108.917L72.138 115.253H71.049L67.584 108.917V117.266H65.736V105.551H67.716L71.5935 112.712L75.471 105.551H77.451V117.266H75.5865ZM78.8082 114.741C78.8082 114.191 78.9622 113.713 79.2702 113.306C79.5892 112.888 80.0237 112.569 80.5737 112.349C81.1237 112.118 81.7617 112.002 82.4877 112.002C82.8727 112.002 83.2632 112.03 83.6592 112.085C84.0662 112.14 84.4237 112.228 84.7317 112.349V111.804C84.7317 111.199 84.5502 110.726 84.1872 110.385C83.8242 110.044 83.3017 109.874 82.6197 109.874C82.1357 109.874 81.6792 109.962 81.2502 110.138C80.8212 110.303 80.3647 110.539 79.8807 110.847L79.2702 109.626C79.8422 109.241 80.4142 108.955 80.9862 108.768C81.5692 108.581 82.1797 108.488 82.8177 108.488C83.9727 108.488 84.8802 108.796 85.5402 109.412C86.2112 110.017 86.5467 110.88 86.5467 112.002V115.22C86.5467 115.429 86.5797 115.577 86.6457 115.665C86.7227 115.753 86.8492 115.803 87.0252 115.814V117.266C86.8602 117.299 86.7117 117.321 86.5797 117.332C86.4477 117.343 86.3377 117.348 86.2497 117.348C85.8647 117.348 85.5732 117.255 85.3752 117.068C85.1772 116.881 85.0617 116.661 85.0287 116.408L84.9792 115.913C84.6052 116.397 84.1267 116.771 83.5437 117.035C82.9607 117.299 82.3722 117.431 81.7782 117.431C81.2062 117.431 80.6947 117.315 80.2437 117.084C79.7927 116.842 79.4407 116.518 79.1877 116.111C78.9347 115.704 78.8082 115.247 78.8082 114.741ZM84.3027 115.269C84.4347 115.126 84.5392 114.983 84.6162 114.84C84.6932 114.697 84.7317 114.571 84.7317 114.461V113.471C84.4237 113.35 84.0992 113.262 83.7582 113.207C83.4172 113.141 83.0817 113.108 82.7517 113.108C82.0917 113.108 81.5527 113.24 81.1347 113.504C80.7277 113.768 80.5242 114.131 80.5242 114.593C80.5242 114.846 80.5902 115.088 80.7222 115.319C80.8652 115.55 81.0632 115.737 81.3162 115.88C81.5802 116.023 81.9047 116.094 82.2897 116.094C82.6857 116.094 83.0652 116.017 83.4282 115.863C83.7912 115.709 84.0827 115.511 84.3027 115.269ZM93.1557 116.82C93.0017 116.897 92.8092 116.98 92.5782 117.068C92.3472 117.156 92.0832 117.233 91.7862 117.299C91.5002 117.365 91.2032 117.398 90.8952 117.398C90.5212 117.398 90.1747 117.332 89.8557 117.2C89.5367 117.068 89.2782 116.859 89.0802 116.573C88.8932 116.276 88.7997 115.896 88.7997 115.434V110.039H87.6612V108.636H88.7997V105.798H90.6147V108.636H92.4957V110.039H90.6147V114.857C90.6367 115.154 90.7302 115.374 90.8952 115.517C91.0712 115.66 91.2857 115.731 91.5387 115.731C91.7917 115.731 92.0337 115.687 92.2647 115.599C92.4957 115.511 92.6662 115.44 92.7762 115.385L93.1557 116.82ZM97.8805 117.431C97.2095 117.431 96.599 117.315 96.049 117.084C95.51 116.842 95.0425 116.512 94.6465 116.094C94.2505 115.676 93.9425 115.198 93.7225 114.659C93.5135 114.12 93.409 113.548 93.409 112.943C93.409 112.129 93.5905 111.386 93.9535 110.715C94.3275 110.044 94.8445 109.505 95.5045 109.098C96.1755 108.691 96.9675 108.488 97.8805 108.488C98.7605 108.488 99.525 108.686 100.174 109.082C100.834 109.467 101.318 109.984 101.626 110.633L99.8605 111.194C99.6625 110.831 99.382 110.55 99.019 110.352C98.667 110.143 98.2765 110.039 97.8475 110.039C97.3635 110.039 96.9235 110.165 96.5275 110.418C96.1425 110.66 95.8345 111.001 95.6035 111.441C95.3835 111.87 95.2735 112.371 95.2735 112.943C95.2735 113.493 95.389 113.993 95.62 114.444C95.851 114.884 96.159 115.236 96.544 115.5C96.94 115.753 97.38 115.88 97.864 115.88C98.161 115.88 98.447 115.83 98.722 115.731C99.008 115.621 99.2555 115.478 99.4645 115.302C99.6735 115.115 99.822 114.912 99.91 114.692L101.692 115.22C101.505 115.649 101.225 116.028 100.851 116.358C100.488 116.688 100.053 116.952 99.547 117.15C99.052 117.337 98.4965 117.431 97.8805 117.431ZM110.595 117.266H108.78V112.431C108.78 111.65 108.637 111.067 108.351 110.682C108.065 110.297 107.664 110.105 107.147 110.105C106.828 110.105 106.498 110.193 106.157 110.369C105.816 110.545 105.513 110.787 105.249 111.095C104.985 111.392 104.793 111.738 104.672 112.134V117.266H102.857V105.221H104.672V110.369C105.002 109.786 105.453 109.329 106.025 108.999C106.597 108.658 107.213 108.488 107.873 108.488C108.412 108.488 108.857 108.581 109.209 108.768C109.561 108.955 109.836 109.214 110.034 109.544C110.243 109.863 110.386 110.237 110.463 110.666C110.551 111.084 110.595 111.529 110.595 112.002V117.266Z" fill="#F4E9DC"/>
</svg>
