<svg width="173" height="173" viewBox="0 0 173 173" fill="none" xmlns="http://www.w3.org/2000/svg">
<rect x="0.692" y="0.692" width="171.616" height="171.616" rx="85.808" stroke="black" stroke-opacity="0.02" stroke-width="1.384"/>
<rect x="25.6041" y="25.6041" width="123.176" height="123.176" rx="61.588" stroke="black" stroke-opacity="0.05" stroke-width="1.384"/>
<path fill-rule="evenodd" clip-rule="evenodd" d="M125.944 87.1922C125.944 108.594 108.595 125.944 87.1924 125.944C65.7903 125.944 48.4404 108.594 48.4404 87.1922C48.4404 65.79 65.7903 48.4402 87.1924 48.4402C108.595 48.4402 125.944 65.79 125.944 87.1922ZM102.811 75.449C103.946 76.5841 103.946 78.4243 102.811 79.5593L83.4348 98.9353C82.2997 100.07 80.4595 100.07 79.3245 98.9353L71.5741 91.1849C70.4391 90.0499 70.4391 88.2097 71.5741 87.0746C72.7091 85.9396 74.5493 85.9396 75.6844 87.0746L81.3796 92.7699L90.0401 84.1095L98.7005 75.449C99.8355 74.314 101.676 74.314 102.811 75.449Z" fill="#16263D"/>
</svg>
