<svg width="60" height="61" viewBox="0 0 60 61" fill="none" xmlns="http://www.w3.org/2000/svg">
<mask id="path-1-inside-1_3001_344" fill="white">
<path d="M0 30.6001C0 14.0316 13.4315 0.600098 30 0.600098C46.5685 0.600098 60 14.0316 60 30.6001C60 47.1686 46.5685 60.6001 30 60.6001C13.4315 60.6001 0 47.1686 0 30.6001Z"/>
</mask>
<path d="M30 60.6001V59.6001C13.9837 59.6001 1 46.6164 1 30.6001H0H-1C-1 47.7209 12.8792 61.6001 30 61.6001V60.6001ZM60 30.6001H59C59 46.6164 46.0163 59.6001 30 59.6001V60.6001V61.6001C47.1208 61.6001 61 47.7209 61 30.6001H60ZM30 0.600098V1.6001C46.0163 1.6001 59 14.5838 59 30.6001H60H61C61 13.4793 47.1208 -0.399902 30 -0.399902V0.600098ZM30 0.600098V-0.399902C12.8792 -0.399902 -1 13.4793 -1 30.6001H0H1C1 14.5838 13.9837 1.6001 30 1.6001V0.600098Z" fill="#0C1C2E" mask="url(#path-1-inside-1_3001_344)"/>
<g clip-path="url(#clip0_3001_344)">
<path d="M32.6875 38.2876L25.7812 31.3657C25.5625 31.1574 25.4531 30.9022 25.4531 30.6001C25.4531 30.298 25.5625 30.0428 25.7812 29.8345L32.6875 22.9126C32.8958 22.7043 33.151 22.6001 33.4531 22.6001C33.7552 22.6001 34.0104 22.7043 34.2188 22.9126C34.4375 23.1313 34.5469 23.3892 34.5469 23.686C34.5469 23.9829 34.4375 24.2407 34.2188 24.4595L28.0781 30.6001L34.2188 36.7407C34.4375 36.9595 34.5469 37.2173 34.5469 37.5142C34.5469 37.811 34.4375 38.0688 34.2188 38.2876C34.0104 38.4959 33.7552 38.6001 33.4531 38.6001C33.151 38.6001 32.8958 38.4959 32.6875 38.2876Z" fill="#0C1C2E"/>
</g>
<defs>
<clipPath id="clip0_3001_344">
<rect width="16" height="16" fill="white" transform="translate(22 22.6001)"/>
</clipPath>
</defs>
</svg>
