<svg width="60" height="61" viewBox="0 0 60 61" fill="none" xmlns="http://www.w3.org/2000/svg">
<mask id="path-1-inside-1_3001_348" fill="white">
<path d="M0 30.6001C0 14.0316 13.4315 0.600098 30 0.600098C46.5685 0.600098 60 14.0316 60 30.6001C60 47.1686 46.5685 60.6001 30 60.6001C13.4315 60.6001 0 47.1686 0 30.6001Z"/>
</mask>
<path d="M30 60.6001V59.6001C13.9837 59.6001 1 46.6164 1 30.6001H0H-1C-1 47.7209 12.8792 61.6001 30 61.6001V60.6001ZM60 30.6001H59C59 46.6164 46.0163 59.6001 30 59.6001V60.6001V61.6001C47.1208 61.6001 61 47.7209 61 30.6001H60ZM30 0.600098V1.6001C46.0163 1.6001 59 14.5838 59 30.6001H60H61C61 13.4793 47.1208 -0.399902 30 -0.399902V0.600098ZM30 0.600098V-0.399902C12.8792 -0.399902 -1 13.4793 -1 30.6001H0H1C1 14.5838 13.9837 1.6001 30 1.6001V0.600098Z" fill="#0C1C2E" mask="url(#path-1-inside-1_3001_348)"/>
<g clip-path="url(#clip0_3001_348)">
<path d="M27.3125 22.9126L34.2188 29.8345C34.4375 30.0428 34.5469 30.298 34.5469 30.6001C34.5469 30.9022 34.4375 31.1574 34.2188 31.3657L27.3125 38.2876C27.1042 38.4959 26.849 38.6001 26.5469 38.6001C26.2448 38.6001 25.9896 38.4959 25.7812 38.2876C25.5625 38.0688 25.4531 37.811 25.4531 37.5142C25.4531 37.2173 25.5625 36.9595 25.7812 36.7407L31.9219 30.6001L25.7812 24.4595C25.5625 24.2407 25.4531 23.9829 25.4531 23.686C25.4531 23.3892 25.5625 23.1313 25.7812 22.9126C25.9896 22.7043 26.2448 22.6001 26.5469 22.6001C26.849 22.6001 27.1042 22.7043 27.3125 22.9126Z" fill="#0C1C2E"/>
</g>
<defs>
<clipPath id="clip0_3001_348">
<rect width="16" height="16" fill="white" transform="translate(22 22.6001)"/>
</clipPath>
</defs>
</svg>
