<svg width="29" height="35" viewBox="0 0 29 35" fill="none" xmlns="http://www.w3.org/2000/svg">
<path d="M24.3359 18.3058C24.2964 14.02 27.9196 11.935 28.0853 11.8379C26.0334 8.90848 22.8529 8.50821 21.7353 8.4763C19.064 8.20106 16.473 10.0414 15.1123 10.0414C13.7244 10.0414 11.629 8.50288 9.37057 8.54808C6.46448 8.59197 3.74574 10.2396 2.25466 12.7979C-0.822631 18.0145 1.4724 25.6806 4.42064 29.8972C5.89546 31.9623 7.61877 34.2681 9.87445 34.187C12.0812 34.0979 12.9055 32.8094 15.5685 32.8094C18.2072 32.8094 18.9812 34.187 21.2817 34.1352C23.6501 34.0979 25.1411 32.0607 26.5644 29.977C28.2686 27.6101 28.953 25.279 28.9802 25.1593C28.9245 25.1407 24.3806 23.4426 24.3359 18.3058Z" fill="black"/>
<path d="M19.9901 5.70202C21.177 4.24862 21.9891 2.27124 21.7637 0.264648C20.0458 0.339141 17.8974 1.42821 16.6603 2.84969C15.5657 4.10235 14.588 6.15545 14.8406 8.08623C16.7703 8.22718 18.7516 7.13278 19.9901 5.70202Z" fill="black"/>
</svg>
