<svg width="39" height="39" viewBox="0 0 39 39" fill="none" xmlns="http://www.w3.org/2000/svg">
<path d="M19.0198 35.4207C18.3864 35.4207 17.7795 35.3019 17.1989 35.0644C16.6184 34.8269 16.1038 34.4838 15.6552 34.0352L7.58017 25.9207L8.76767 24.6936C9.18989 24.2713 9.68468 23.9877 10.252 23.8425C10.8194 23.6974 11.3802 23.704 11.9343 23.8623L14.5468 24.6144V11.6707C14.5468 11.222 14.6986 10.846 15.002 10.5425C15.3055 10.2391 15.6816 10.0873 16.1302 10.0873C16.5788 10.0873 16.9548 10.2391 17.2583 10.5425C17.5618 10.846 17.7135 11.222 17.7135 11.6707V28.8102L13.8739 27.7415L17.9114 31.779C18.0434 31.9109 18.2083 32.0231 18.4062 32.1154C18.6041 32.2078 18.8086 32.254 19.0198 32.254H25.6302C26.501 32.254 27.2465 31.9439 27.8666 31.3238C28.4868 30.7036 28.7968 29.9582 28.7968 29.0873V22.754C28.7968 22.3054 28.9486 21.9293 29.252 21.6259C29.5555 21.3224 29.9316 21.1707 30.3802 21.1707C30.8288 21.1707 31.2048 21.3224 31.5083 21.6259C31.8118 21.9293 31.9635 22.3054 31.9635 22.754V29.0873C31.9635 30.829 31.3434 32.32 30.1031 33.5602C28.8628 34.8005 27.3718 35.4207 25.6302 35.4207H19.0198ZM19.2968 24.3373V18.004C19.2968 17.5554 19.4486 17.1793 19.752 16.8759C20.0555 16.5724 20.4316 16.4207 20.8802 16.4207C21.3288 16.4207 21.7048 16.5724 22.0083 16.8759C22.3118 17.1793 22.4635 17.5554 22.4635 18.004V24.3373H19.2968ZM24.0468 24.3373V19.5873C24.0468 19.1387 24.1986 18.7627 24.502 18.4592C24.8055 18.1557 25.1816 18.004 25.6302 18.004C26.0788 18.004 26.4548 18.1557 26.7583 18.4592C27.0618 18.7627 27.2135 19.1387 27.2135 19.5873V24.3373H24.0468ZM3.4635 11.6707C4.25517 8.87343 6.12878 6.59079 9.08433 4.82274C12.0399 3.05468 15.4441 2.17065 19.2968 2.17065C21.7774 2.17065 24.1656 2.57968 26.4614 3.39774C28.7572 4.21579 30.8552 5.40329 32.7552 6.96024V3.75399H35.1302V11.6707H27.2135V9.29565H31.8052C30.0635 7.7651 28.1239 6.59079 25.9864 5.77274C23.8489 4.95468 21.6191 4.54565 19.2968 4.54565C16.1829 4.54565 13.4319 5.17899 11.0437 6.44565C8.65551 7.71232 6.96003 9.45399 5.95725 11.6707H3.4635Z" fill="#E3E3E3"/>
</svg>
