<svg width="25" height="28" viewBox="0 0 25 28" fill="none" xmlns="http://www.w3.org/2000/svg">
<path d="M0.672636 27.1915L13.6994 13.6596L0.683564 0.151855C0.33593 0.362132 0.120758 0.849046 0.120758 1.48643V25.8698C0.125392 26.5072 0.332784 26.9586 0.672636 27.1915Z" fill="black"/>
<path d="M14.1664 13.2863L18.0467 9.25504L2.24503 0.254163C1.97897 0.0936358 1.67672 0.00873795 1.36887 0.00830078L14.1649 13.2847L14.1664 13.2863Z" fill="black"/>
<path d="M14.166 14.0347L1.32952 27.3693C1.65171 27.3749 1.96901 27.2875 2.24617 27.1169L18.079 18.0918L14.166 14.0347Z" fill="black"/>
<path d="M23.7697 12.5209L18.5113 9.52002L14.5251 13.6614L18.541 17.8285L23.7682 14.8358C24.8797 14.2 24.8797 13.1534 23.7697 12.5209Z" fill="black"/>
</svg>
