<svg width="25" height="28" viewBox="0 0 25 28" fill="none" xmlns="http://www.w3.org/2000/svg">
<path d="M0.672728 27.1915L13.6995 13.6596L0.683656 0.151855C0.336022 0.362132 0.12085 0.849046 0.12085 1.48643V25.8698C0.125484 26.5072 0.332875 26.9586 0.672728 27.1915Z" fill="black"/>
<path d="M14.1665 13.2862L18.0467 9.25492L2.24506 0.254041C1.979 0.0935137 1.67675 0.00861588 1.3689 0.00817871L14.1649 13.2845L14.1665 13.2862Z" fill="black"/>
<path d="M14.1661 14.0347L1.32959 27.3693C1.65178 27.3749 1.96908 27.2875 2.24624 27.1169L18.079 18.0918L14.1661 14.0347Z" fill="black"/>
<path d="M23.7698 12.5207L18.5114 9.51978L14.5251 13.6611L18.541 17.8283L23.7682 14.8355C24.8798 14.1998 24.8798 13.1531 23.7698 12.5207Z" fill="black"/>
</svg>
