<svg width="39" height="39" viewBox="0 0 39 39" fill="none" xmlns="http://www.w3.org/2000/svg">
<path d="M17.3124 25.1604H22.0624V21.2021H26.0208V16.4521H22.0624V12.4937H17.3124V16.4521H13.3541V21.2021H17.3124V25.1604ZM19.6874 35.4521C16.0194 34.5285 12.9912 32.4239 10.603 29.1385C8.21485 25.8531 7.02075 22.2048 7.02075 18.1937V8.5354L19.6874 3.7854L32.3541 8.5354V18.1937C32.3541 22.2048 31.16 25.8531 28.7718 29.1385C26.3836 32.4239 23.3555 34.5285 19.6874 35.4521ZM19.6874 32.1271C22.4319 31.2562 24.7013 29.5146 26.4958 26.9021C28.2902 24.2896 29.1874 21.3868 29.1874 18.1937V10.7125L19.6874 7.14998L10.1874 10.7125V18.1937C10.1874 21.3868 11.0846 24.2896 12.8791 26.9021C14.6735 29.5146 16.943 31.2562 19.6874 32.1271Z" fill="#E3E3E3"/>
</svg>
