<svg width="39" height="39" viewBox="0 0 39 39" fill="none" xmlns="http://www.w3.org/2000/svg">
<g clip-path="url(#clip0_3133_373)">
<path d="M7.02083 22.0332L11.0188 18.0353L7.02083 14.0374L3.02292 18.0353L7.02083 22.0332ZM28.3958 21.202L32.3542 14.8687L36.3125 21.202H28.3958ZM19.6875 19.6187C18.3681 19.6187 17.2465 19.1568 16.3229 18.2332C15.3993 17.3096 14.9375 16.1881 14.9375 14.8687C14.9375 13.5228 15.3993 12.3947 16.3229 11.4843C17.2465 10.5739 18.3681 10.1187 19.6875 10.1187C21.0333 10.1187 22.1615 10.5739 23.0719 11.4843C23.9823 12.3947 24.4375 13.5228 24.4375 14.8687C24.4375 16.1881 23.9823 17.3096 23.0719 18.2332C22.1615 19.1568 21.0333 19.6187 19.6875 19.6187ZM19.6875 13.2853C19.2389 13.2853 18.8628 13.4371 18.5594 13.7405C18.2559 14.044 18.1042 14.42 18.1042 14.8687C18.1042 15.3173 18.2559 15.6933 18.5594 15.9968C18.8628 16.3002 19.2389 16.452 19.6875 16.452C20.1361 16.452 20.5122 16.3002 20.8156 15.9968C21.1191 15.6933 21.2708 15.3173 21.2708 14.8687C21.2708 14.42 21.1191 14.044 20.8156 13.7405C20.5122 13.4371 20.1361 13.2853 19.6875 13.2853ZM0.6875 29.1187V26.6249C0.6875 25.4638 1.27465 24.5336 2.44896 23.8343C3.62326 23.135 5.14722 22.7853 7.02083 22.7853C7.36389 22.7853 7.69375 22.7919 8.01042 22.8051C8.32708 22.8183 8.63056 22.8513 8.92083 22.9041C8.55139 23.4318 8.27431 23.9992 8.08958 24.6062C7.90486 25.2131 7.8125 25.8596 7.8125 26.5457V29.1187H0.6875ZM10.1875 29.1187V26.5457C10.1875 24.8305 11.0649 23.445 12.8198 22.3895C14.5747 21.3339 16.8639 20.8062 19.6875 20.8062C22.5375 20.8062 24.8333 21.3339 26.575 22.3895C28.3167 23.445 29.1875 24.8305 29.1875 26.5457V29.1187H10.1875ZM32.3542 22.7853C34.2542 22.7853 35.7847 23.135 36.9458 23.8343C38.1069 24.5336 38.6875 25.4638 38.6875 26.6249V29.1187H31.5625V26.5457C31.5625 25.8596 31.4767 25.2131 31.3052 24.6062C31.1337 23.9992 30.8764 23.4318 30.5333 22.9041C30.8236 22.8513 31.1205 22.8183 31.424 22.8051C31.7274 22.7919 32.0375 22.7853 32.3542 22.7853ZM19.6875 23.9728C18.1833 23.9728 16.8375 24.1707 15.65 24.5666C14.4625 24.9624 13.7632 25.4242 13.5521 25.952H25.8625C25.625 25.4242 24.9191 24.9624 23.7448 24.5666C22.5705 24.1707 21.2181 23.9728 19.6875 23.9728Z" fill="#E3E3E3"/>
</g>
<defs>
<clipPath id="clip0_3133_373">
<rect width="38" height="38" fill="white" transform="translate(0.6875 0.618652)"/>
</clipPath>
</defs>
</svg>
